<?xml version="1.0" encoding="UTF-8"?>
<!DOCTYPE svg PUBLIC "-//W3C//DTD SVG 1.1//EN" "http://www.w3.org/Graphics/SVG/1.1/DTD/svg11.dtd">
<svg xmlns="http://www.w3.org/2000/svg" version="1.1" width="1440px" height="256px" style="shape-rendering:geometricPrecision; text-rendering:geometricPrecision; image-rendering:optimizeQuality; fill-rule:evenodd; clip-rule:evenodd" xmlns:xlink="http://www.w3.org/1999/xlink">
<g><path style="opacity:1" fill="#a2ad35" d="M 617.5,-0.5 C 687.833,-0.5 758.167,-0.5 828.5,-0.5C 960.712,1.73843 1092.71,9.90509 1224.5,24C 1271.56,29.2883 1318.23,36.9549 1364.5,47C 1387.81,51.8819 1410.15,59.5486 1431.5,70C 1434.05,72.054 1436.71,73.8874 1439.5,75.5C 1439.5,135.5 1439.5,195.5 1439.5,255.5C 959.5,255.5 479.5,255.5 -0.5,255.5C -0.5,198.5 -0.5,141.5 -0.5,84.5C 6.25335,74.9387 15.2533,68.1054 26.5,64C 55.045,53.1966 84.3784,45.1966 114.5,40C 200.945,25.2468 287.945,15.2468 375.5,10C 456.258,4.88536 536.925,1.38536 617.5,-0.5 Z"/></g>
</svg>
