<?xml version="1.0" encoding="UTF-8"?>
<!DOCTYPE svg PUBLIC "-//W3C//DTD SVG 1.1//EN" "http://www.w3.org/Graphics/SVG/1.1/DTD/svg11.dtd">
<svg xmlns="http://www.w3.org/2000/svg" version="1.1" width="1440px" height="215px" style="shape-rendering:geometricPrecision; text-rendering:geometricPrecision; image-rendering:optimizeQuality; fill-rule:evenodd; clip-rule:evenodd" xmlns:xlink="http://www.w3.org/1999/xlink">
<g><path style="opacity:0.999" fill="#a2ad36" d="M -0.5,-0.5 C 479.5,-0.5 959.5,-0.5 1439.5,-0.5C 1439.5,49.8333 1439.5,100.167 1439.5,150.5C 1420.05,160.928 1399.38,168.095 1377.5,172C 1300.1,186.415 1222.1,196.081 1143.5,201C 1041.45,208.002 939.45,212.502 837.5,214.5C 761.167,214.5 684.833,214.5 608.5,214.5C 502.2,212.473 395.866,207.64 289.5,200C 225.84,195.445 162.507,188.112 99.5,178C 72.5552,173.681 46.2219,167.014 20.5,158C 12.0016,155.104 5.00157,150.271 -0.5,143.5C -0.5,95.5 -0.5,47.5 -0.5,-0.5 Z"/></g>
</svg>
